<svg width="28" height="28" fill="none" xmlns="http://www.w3.org/2000/svg"><path d="M14 28c7.732 0 14-6.268 14-14S21.732 0 14 0 0 6.268 0 14s6.268 14 14 14z" fill="#353945" opacity=".1"/><path fill-rule="evenodd" clip-rule="evenodd" d="M17.857 12.286a3.143 3.143 0 10-2.979-2.138l-3.46 2.163a3.714 3.714 0 10.43 4.542l2.914 1.456a3.143 3.143 0 10.476-1.19l-2.899-1.45a3.725 3.725 0 00-.22-2.297l3.402-2.127a3.135 3.135 0 002.336 1.04zm0-1.143a2 2 0 100-4 2 2 0 000 4zm-9.143 6.286a2.571 2.571 0 100-5.143 2.571 2.571 0 000 5.143zm11.143 1.428a2 2 0 11-4 0 2 2 0 014 0z" fill="#575B72"/></svg>
