<svg width="50" height="88" viewBox="0 0 50 88" fill="none" xmlns="http://www.w3.org/2000/svg">
<path d="M38.0482 38.9549C37.9263 38.955 37.8067 38.9222 37.702 38.8598C37.5973 38.7975 37.5115 38.708 37.4537 38.6008L31.9549 28.8582C31.9013 28.7799 31.8644 28.6913 31.8468 28.5981C31.8292 28.5049 31.8311 28.409 31.8524 28.3166C31.8738 28.2241 31.9142 28.1371 31.971 28.0611C32.0278 27.985 32.0997 27.9216 32.1823 27.8748C32.2649 27.8279 32.3563 27.7988 32.4508 27.7891C32.5453 27.7794 32.6407 27.7894 32.7311 27.8185C32.8215 27.8476 32.9049 27.8952 32.9759 27.9581C33.047 28.0211 33.1042 28.0981 33.1439 28.1843L38.6426 37.9383C38.687 38.0161 38.7154 38.102 38.7262 38.1909C38.737 38.2798 38.7299 38.3699 38.7054 38.456C38.681 38.5422 38.6395 38.6226 38.5836 38.6925C38.5277 38.7625 38.4583 38.8206 38.3797 38.8635C38.2809 38.9266 38.1653 38.9584 38.0482 38.9549ZM48.3026 50.3194L39.3171 65.2931C39.2971 65.3354 39.2701 65.374 39.2371 65.4073L25.7131 86.9484C25.6516 87.0476 25.5657 87.1294 25.4637 87.1862C25.3617 87.2429 25.2468 87.2727 25.1301 87.2727C25.0133 87.2727 24.8985 87.2429 24.7964 87.1862C24.6944 87.1294 24.6085 87.0476 24.547 86.9484L1.74033 50.6163C0.627024 48.8486 0.0249719 46.8077 0.000760171 44.7193C-0.0234515 42.6309 0.531127 40.5765 1.60316 38.7835L24.5356 0.338423C24.6047 0.220885 24.7072 0.126576 24.8302 0.0675646C24.9531 0.00855326 25.0909 -0.0124788 25.2259 0.00713831C25.3609 0.0267554 25.487 0.0861321 25.588 0.177696C25.689 0.269259 25.7605 0.388846 25.7931 0.521166L48.4284 38.7493C49.4778 40.5017 50.0215 42.51 49.9993 44.552C49.9772 46.5941 49.3899 48.5901 48.3026 50.3194ZM29.9772 51.096L34.207 44.1517C34.4892 43.6917 34.6451 43.1655 34.6592 42.6262C34.6732 42.0869 34.5449 41.5533 34.2871 41.0793L25.816 26.8594V31.2339L30.846 40.0171C31.2004 40.6353 31.384 41.3366 31.378 42.049C31.372 42.7615 31.1765 43.4595 30.8117 44.0717L29.6685 45.9791C29.6077 46.0821 29.5207 46.167 29.4162 46.2252C29.3117 46.2834 29.1937 46.3128 29.0741 46.3104C28.9533 46.3141 28.834 46.2823 28.7311 46.219C28.6528 46.1742 28.5843 46.1142 28.5297 46.0424C28.475 45.9707 28.4353 45.8888 28.4129 45.8014C28.3905 45.7141 28.3859 45.6232 28.3993 45.534C28.4128 45.4449 28.4439 45.3593 28.491 45.2824L29.6342 43.3636C29.8738 42.9618 30.0021 42.5037 30.0061 42.0361C30.0102 41.5685 29.8897 41.1082 29.6571 40.7024L25.816 33.9979V40.8737C25.8119 43.5996 26.6415 46.2616 28.1938 48.5033L29.9772 51.096ZM37.8767 64.9961L27.0621 49.28C25.3517 46.8103 24.4382 43.877 24.4442 40.8737V3.18241L2.78065 39.4917C1.83794 41.0664 1.35062 42.8715 1.37282 44.7063C1.39501 46.5411 1.92588 48.3338 2.90641 49.8853L25.1301 85.2923L37.8767 64.9961ZM47.2509 39.4574L25.816 3.25093V7.07717L39.0999 30.5029C39.145 30.5809 39.1743 30.6669 39.186 30.7562C39.1978 30.8455 39.1918 30.9363 39.1684 31.0232C39.1451 31.1102 39.1048 31.1918 39.0499 31.2632C38.995 31.3346 38.9265 31.3945 38.8484 31.4394C38.7428 31.4963 38.6253 31.5276 38.5054 31.5308C38.385 31.5309 38.2666 31.4993 38.1622 31.4391C38.0579 31.379 37.9712 31.2924 37.911 31.1882L25.816 9.85261V15.4492L31.8063 25.683C31.8534 25.7599 31.8846 25.8454 31.898 25.9345C31.9114 26.0237 31.9068 26.1146 31.8845 26.2019C31.8621 26.2893 31.8224 26.3712 31.7677 26.443C31.7131 26.5147 31.6446 26.5747 31.5663 26.6195C31.4628 26.6817 31.344 26.7134 31.2233 26.7109C31.1037 26.7133 30.9856 26.6839 30.8812 26.6257C30.7767 26.5675 30.6896 26.4826 30.6288 26.3797L25.816 18.1561V24.2096L35.4645 40.3826V40.4054C35.8391 41.094 36.0267 41.8685 36.0086 42.652C35.9906 43.4355 35.7675 44.2006 35.3616 44.8713L30.8003 52.341L32.8466 55.2992L39.1342 45.054C39.5229 44.4144 40.083 43.1694 39.3971 42.0044L38.8369 41.0336C38.7919 40.9556 38.7626 40.8695 38.7508 40.7802C38.7391 40.6909 38.745 40.6002 38.7684 40.5132C38.7918 40.4262 38.832 40.3447 38.887 40.2733C38.9419 40.2019 39.0104 40.142 39.0885 40.097C39.2468 40.0091 39.4331 39.9861 39.6081 40.033C39.7831 40.0799 39.9329 40.193 40.0259 40.3483L40.586 41.3077C41.3405 42.6212 41.2491 44.2431 40.3002 45.7736L33.6926 56.5327L35.7961 59.5823L43.7756 46.7101C44.2315 45.9708 44.4796 45.1223 44.4937 44.254C44.5077 43.3857 44.2873 42.5297 43.8556 41.776L39.3971 34.0322C39.3062 33.8746 39.2816 33.6875 39.3287 33.5118C39.3759 33.3362 39.491 33.1864 39.6486 33.0956C39.8063 33.0047 39.9936 32.9801 40.1694 33.0272C40.3452 33.0744 40.4951 33.1893 40.586 33.3469L45.0445 41.0907C45.5985 42.0592 45.8813 43.1589 45.8632 44.2743C45.8451 45.3897 45.5267 46.4796 44.9416 47.4297L36.642 60.8158L38.6426 63.7283L47.1022 49.5998C47.1137 49.5998 47.1137 49.5998 47.1137 49.5884C48.0704 48.077 48.5897 46.3304 48.6139 44.5422C48.6381 42.7541 48.1664 40.9941 47.2509 39.4574Z" fill="url(#paint0_linear_3_57)"/>
<defs>
<linearGradient id="paint0_linear_3_57" x1="20.5607" y1="13.3581" x2="0.403869" y2="103.115" gradientUnits="userSpaceOnUse">
<stop offset="0.111821" stop-color="#04D2CA"/>
<stop offset="0.816463" stop-color="#6A49E4"/>
</linearGradient>
</defs>
</svg>
